<svg width="90" height="90" viewBox="0 0 90 90" fill="none" xmlns="http://www.w3.org/2000/svg">
<circle cx="45" cy="45" r="41" fill="#2E3848"/>
<path d="M44.98 3.71676e-08C69.782 -0.000999963 89.958 20.177 89.958 44.978C89.959 69.779 69.781 89.957 44.979 89.957C20.177 89.957 0 69.779 0 44.979C0 20.177 20.179 -0.000999963 44.98 3.71676e-08ZM44.979 85.344C67.237 85.344 85.346 67.237 85.346 44.978C85.346 22.721 67.238 4.613 44.98 4.612C22.723 4.613 4.614 22.721 4.614 44.978C4.615 67.236 22.723 85.344 44.979 85.344Z" fill="#8EAEE0"/>
<path d="M45.5 25C37.25 25 29 27.0625 29 31.1875V59.0312C29 63.1562 37.25 65.2188 45.5 65.2188C53.75 65.2188 62 63.1562 62 59.0312V31.1875C62 27.0625 53.75 25 45.5 25ZM59.9375 59.0312C59.9375 60.7225 54.3069 63.1562 45.5 63.1562C36.6931 63.1562 31.0625 60.7225 31.0625 59.0312V52.8438C34.0325 54.9062 39.7869 55.9375 45.5 55.9375C51.2131 55.9375 56.9675 54.9062 59.9375 52.9056V59.0312ZM59.9375 49.75C59.9375 51.4412 54.3069 53.875 45.5 53.875C36.6931 53.875 31.0625 51.4412 31.0625 49.75V43.5625C34.0325 45.625 39.7869 46.5944 45.5 46.5944C51.2131 46.5944 56.9675 45.625 59.9375 43.5625V49.75ZM59.9375 40.4688C59.9375 42.16 54.3069 44.5938 45.5 44.5938C36.6931 44.5938 31.0625 42.16 31.0625 40.4688V34.2812C34.0325 36.3438 39.7869 37.375 45.5 37.375C51.2131 37.375 56.9675 36.3438 59.9375 34.3431V40.4688ZM45.5 35.3125C36.6931 35.3125 31.0625 32.8787 31.0625 31.1875C31.0625 29.4963 36.6931 27.0625 45.5 27.0625C54.3069 27.0625 59.9375 29.4963 59.9375 31.1875C59.9375 32.8787 54.3069 35.3125 45.5 35.3125Z" fill="#8EAEE0"/>
</svg>
