<svg width="90" height="90" viewBox="0 0 90 90" fill="none" xmlns="http://www.w3.org/2000/svg">
<circle cx="45" cy="45" r="41" fill="#2E3848"/>
<path d="M44.9818 24.3579C46.2548 24.3579 47.2878 25.3899 47.2878 26.6649V63.2869C47.2878 64.5609 46.2548 65.5939 44.9808 65.5939C43.7068 65.5939 42.6758 64.5629 42.6748 63.2869L42.6758 26.6649C42.6758 25.3899 43.7078 24.3579 44.9818 24.3579Z" fill="#9CABC3"/>
<path d="M30.4609 46.4651C31.0529 46.4641 31.6449 46.6921 32.0949 47.1411L44.9779 60.0261L57.8659 47.1411C58.7649 46.2381 60.2259 46.2381 61.1279 47.1411C62.0279 48.0411 62.0299 49.5021 61.1279 50.4041L46.6099 64.9181C45.7119 65.8161 44.2469 65.8161 43.3479 64.9181L28.8319 50.4021C27.9309 49.5021 27.9299 48.0411 28.8319 47.1401C29.2819 46.6901 29.8719 46.4651 30.4609 46.4651Z" fill="#9CABC3"/>
<path d="M44.98 3.71676e-08C69.782 -0.000999963 89.958 20.177 89.958 44.978C89.959 69.779 69.781 89.957 44.979 89.957C20.177 89.957 0 69.779 0 44.979C0 20.177 20.179 -0.000999963 44.98 3.71676e-08ZM44.979 85.344C67.237 85.344 85.346 67.237 85.346 44.978C85.346 22.721 67.238 4.613 44.98 4.612C22.723 4.613 4.614 22.721 4.614 44.978C4.615 67.236 22.723 85.344 44.979 85.344Z" fill="#9CABC3"/>
</svg>
